<?xml version="1.0" ?><svg xmlns="http://www.w3.org/2000/svg" xmlns:xlink="http://www.w3.org/1999/xlink" version="1.1" viewBox="0 0 32 32" enable-background="new 0 0 32 32" xml:space="preserve"><g id="s3"><g><path fill="#FFFFFF" d="M16,31.5C7.453,31.5,0.5,24.547,0.5,16S7.453,0.5,16,0.5S31.5,7.453,31.5,16S24.547,31.5,16,31.5z"/><g><path d="M16,1c8.271,0,15,6.729,15,15s-6.729,15-15,15S1,24.271,1,16S7.729,1,16,1 M16,0C7.163,0,0,7.163,0,16s7.163,16,16,16     s16-7.163,16-16S24.837,0,16,0L16,0z"/></g></g><path fill="#00BDFF" d="M23.247,21.927v-5.36c0-2.872-1.533-4.208-3.577-4.208c-1.649,0-2.388,0.907-2.8,1.544v-1.324h-3.107   c0.041,0.877,0,9.348,0,9.348h3.107v-5.221c0-0.279,0.02-0.558,0.103-0.757c0.224-0.558,0.735-1.136,1.593-1.136   c1.125,0,1.574,0.857,1.574,2.113v5.001L23.247,21.927L23.247,21.927z M10.49,11.303c1.083,0,1.758-0.718,1.758-1.616   c-0.02-0.917-0.675-1.614-1.738-1.614S8.753,8.77,8.753,9.687c0,0.897,0.675,1.616,1.717,1.616H10.49z M12.043,21.927v-9.348H8.937   v9.348H12.043z"/></g></svg>